<svg xmlns="http://www.w3.org/2000/svg" xmlns:xlink="http://www.w3.org/1999/xlink" viewBox="0,0,256,256" width="160px" height="160px" fill-rule="nonzero"><g fill="none" fill-rule="nonzero" stroke="none" stroke-width="1" stroke-linecap="butt" stroke-linejoin="miter" stroke-miterlimit="10" stroke-dasharray="" stroke-dashoffset="0" font-family="none" font-weight="none" font-size="none" text-anchor="none" style="mix-blend-mode: normal"><g transform="scale(6.4,6.4)"><path d="M20,38.5c-10.201,0 -18.5,-8.299 -18.5,-18.5c0,-10.201 8.299,-18.5 18.5,-18.5c10.201,0 18.5,8.299 18.5,18.5c0,10.201 -8.299,18.5 -18.5,18.5z" fill="#ec1616"></path><path d="M20,2c9.925,0 18,8.075 18,18c0,9.925 -8.075,18 -18,18c-9.925,0 -18,-8.075 -18,-18c0,-9.925 8.075,-18 18,-18M20,1c-10.545,0 -19,8.455 -19,19c0,10.545 8.455,19 19,19c10.545,0 19,-8.455 19,-19c0,-10.545 -8.455,-19 -19,-19z" fill="#c74343"></path><path d="M35.56,29.008l-15.56,-9.008l9.008,15.56c2.713,-1.578 4.974,-3.839 6.552,-6.552z" fill="#f4b5b5"></path><path d="M35.56,29.008c-1.577,2.713 -3.838,4.974 -6.551,6.551l0.515,0.889c0.001,-0.001 0.002,-0.001 0.003,-0.002c0.683,-0.394 1.336,-0.832 1.96,-1.305c0.046,-0.035 0.093,-0.068 0.138,-0.103c0.306,-0.236 0.606,-0.482 0.896,-0.736c0.028,-0.024 0.054,-0.05 0.082,-0.074c0.575,-0.509 1.119,-1.053 1.628,-1.628c0.024,-0.027 0.048,-0.052 0.072,-0.079c0.255,-0.291 0.5,-0.591 0.737,-0.898c0.034,-0.044 0.067,-0.09 0.101,-0.135c0.474,-0.626 0.914,-1.281 1.309,-1.965z" fill="#f76d6d"></path><path d="M4.44,10.992l15.56,9.008l-9.008,-15.56c-2.713,1.578 -4.974,3.839 -6.552,6.552z" fill="#f4b5b5"></path><path d="M4.44,10.992c1.577,-2.713 3.838,-4.974 6.551,-6.551l-0.515,-0.889c-0.001,0.001 -0.002,0.001 -0.003,0.002c-0.683,0.394 -1.336,0.832 -1.96,1.305c-0.045,0.034 -0.092,0.067 -0.137,0.102c-0.306,0.237 -0.606,0.482 -0.896,0.736c-0.028,0.024 -0.054,0.05 -0.082,0.074c-0.575,0.51 -1.119,1.053 -1.628,1.629c-0.024,0.026 -0.049,0.052 -0.072,0.079c-0.255,0.291 -0.5,0.591 -0.737,0.898c-0.034,0.044 -0.067,0.09 -0.101,0.135c-0.474,0.626 -0.914,1.281 -1.309,1.965z" fill="#f76d6d"></path><path d="M20,27.5c-4.136,0 -7.5,-3.364 -7.5,-7.5c0,-4.136 3.364,-7.5 7.5,-7.5c4.136,0 7.5,3.364 7.5,7.5c0,4.136 -3.364,7.5 -7.5,7.5z" fill="#8bb7f0"></path><path d="M20,13c3.86,0 7,3.14 7,7c0,3.86 -3.14,7 -7,7c-3.86,0 -7,-3.14 -7,-7c0,-3.86 3.14,-7 7,-7M20,12c-4.4,0 -8,3.6 -8,8c0,4.4 3.6,8 8,8c4.4,0 8,-3.6 8,-8c0,-4.4 -3.6,-8 -8,-8z" fill="#4e7ab5"></path><path d="M20,35c-8.25,0 -15,-6.75 -15,-15c0,-8.25 6.75,-15 15,-15c8.25,0 15,6.75 15,15c0,8.25 -6.75,15 -15,15z" fill="#ffffff"></path><path d="M20,31.5c-6.448,0 -11.5,-5.051 -11.5,-11.5c0,-6.449 5.052,-11.5 11.5,-11.5c6.448,0 11.5,5.051 11.5,11.5c0,6.449 -5.052,11.5 -11.5,11.5z" fill="#ec1616"></path><path d="M20,9c6.168,0 11,4.832 11,11c0,6.168 -4.832,11 -11,11c-6.168,0 -11,-4.832 -11,-11c0,-6.168 4.832,-11 11,-11M20,8c-6.7,0 -12,5.3 -12,12c0,6.7 5.3,12 12,12c6.7,0 12,-5.3 12,-12c0,-6.7 -5.3,-12 -12,-12z" fill="#c74343"></path><path d="M10.454,14.474l9.546,5.526l-5.526,-9.546c-1.678,0.958 -3.062,2.342 -4.02,4.02z" fill="#f4b5b5"></path><path d="M14.474,10.454l-0.496,-0.857c-0.446,0.256 -0.873,0.542 -1.279,0.851c-0.015,0.011 -0.03,0.022 -0.044,0.033c-0.816,0.627 -1.546,1.357 -2.172,2.172c-0.011,0.015 -0.022,0.03 -0.034,0.045c-0.309,0.406 -0.594,0.832 -0.85,1.278v0l0.857,0.496c0.956,-1.676 2.34,-3.06 4.018,-4.018z" fill="#f76d6d"></path><path d="M20,27.5c-4.136,0 -7.5,-3.364 -7.5,-7.5c0,-4.136 3.364,-7.5 7.5,-7.5c4.136,0 7.5,3.364 7.5,7.5c0,4.136 -3.364,7.5 -7.5,7.5z" fill="#8bb7f0"></path><path d="M20,13c3.86,0 7,3.14 7,7c0,3.86 -3.14,7 -7,7c-3.86,0 -7,-3.14 -7,-7c0,-3.86 3.14,-7 7,-7M20,12c-4.4,0 -8,3.6 -8,8c0,4.4 3.6,8 8,8c4.4,0 8,-3.6 8,-8c0,-4.4 -3.6,-8 -8,-8z" fill="#4e7ab5"></path><path d="M13.949,16.497l6.051,3.503l-3.503,-6.051c-1.055,0.613 -1.935,1.493 -2.548,2.548z" fill="#9fcdff"></path><path d="M16.497,13.949l-0.498,-0.86c-0.297,0.173 -0.582,0.366 -0.853,0.574c-0.006,0.004 -0.011,0.008 -0.017,0.013c-0.544,0.42 -1.033,0.909 -1.453,1.453c-0.004,0.006 -0.008,0.011 -0.013,0.017c-0.208,0.271 -0.401,0.556 -0.574,0.853v0l0.86,0.498c0.613,-1.055 1.493,-1.935 2.548,-2.548z" fill="#7ca3ce"></path><path d="M29.546,25.526l-9.546,-5.526l5.526,9.546c1.678,-0.958 3.062,-2.342 4.02,-4.02z" fill="#f4b5b5"></path><path d="M25.526,29.546l0.496,0.857c0.446,-0.256 0.873,-0.542 1.279,-0.851c0.015,-0.011 0.03,-0.022 0.044,-0.033c0.816,-0.627 1.546,-1.357 2.172,-2.172c0.011,-0.015 0.022,-0.03 0.034,-0.045c0.309,-0.406 0.594,-0.832 0.85,-1.278v0l-0.857,-0.496c-0.956,1.676 -2.34,3.06 -4.018,4.018z" fill="#f76d6d"></path><path d="M26.051,23.503l-6.051,-3.503l3.503,6.051c1.055,-0.613 1.935,-1.493 2.548,-2.548z" fill="#9fcdff"></path><path d="M23.503,26.051l0.498,0.86c0.297,-0.173 0.582,-0.366 0.853,-0.574c0.006,-0.004 0.011,-0.008 0.017,-0.013c0.544,-0.42 1.033,-0.909 1.453,-1.453c0.004,-0.006 0.008,-0.011 0.013,-0.017c0.208,-0.271 0.401,-0.556 0.574,-0.853v0l-0.86,-0.498c-0.613,1.055 -1.493,1.935 -2.548,2.548z" fill="#7ca3ce"></path><path d="M16.502,25.093l1.355,-4.305l-3.508,-2.79h4.384l1.276,-3.905l1.355,3.905h4.464l-3.508,2.79l1.276,4.225l-3.587,-2.551z" fill="#ffffff"></path></g></g></svg>